<svg width="20" height="20" viewBox="0 0 20 20" fill="none" xmlns="http://www.w3.org/2000/svg">
<path d="M9.83301 0.25C10.2529 0.25 10.6562 0.416934 10.9531 0.713867C11.2499 1.01071 11.4169 1.41328 11.417 1.83301V8.25H17.833C18.2529 8.25 18.6562 8.41693 18.9531 8.71387C19.2499 9.01071 19.4169 9.41328 19.417 9.83301C19.417 10.2529 19.2501 10.6562 18.9531 10.9531C18.6562 11.2501 18.2529 11.417 17.833 11.417H11.417V17.833C11.417 18.2529 11.2501 18.6562 10.9531 18.9531C10.6562 19.2501 10.2529 19.417 9.83301 19.417C9.41328 19.4169 9.01071 19.2499 8.71387 18.9531C8.41693 18.6562 8.25 18.2529 8.25 17.833V11.417H1.83301C1.41328 11.4169 1.01071 11.2499 0.713867 10.9531C0.416935 10.6562 0.25 10.2529 0.25 9.83301C0.250086 9.4132 0.417012 9.01072 0.713867 8.71387C1.01072 8.41701 1.4132 8.25009 1.83301 8.25H8.25V1.83301C8.25009 1.4132 8.41701 1.01072 8.71387 0.713867C9.01072 0.417011 9.4132 0.250086 9.83301 0.25Z" fill="#6364FF" stroke="#6364FF" stroke-width="0.5"/>
</svg>
