<svg width="15" height="15" viewBox="0 0 15 15" fill="none" xmlns="http://www.w3.org/2000/svg">
<path d="M0.713672 0.712072C1.0106 0.41514 1.41379 0.248032 1.83372 0.248033C2.25345 0.248094 2.65622 0.414647 2.95307 0.711381L7.49057 5.24888L12.0274 0.712072C12.3243 0.415139 12.7275 0.248032 13.1474 0.248033C13.5672 0.248093 13.9699 0.414647 14.2668 0.711381C14.5637 1.00831 14.7308 1.4115 14.7308 1.83143C14.7308 2.25135 14.5637 2.65454 14.2668 2.95147L9.72997 7.48828L14.2668 12.0251C14.5637 12.322 14.7308 12.7252 14.7308 13.1451C14.7308 13.5651 14.5637 13.9682 14.2668 14.2652C13.9699 14.5619 13.5672 14.7285 13.1474 14.7285C12.7275 14.7285 12.3243 14.5614 12.0274 14.2645L7.49057 9.72768L2.95307 14.2652C2.65622 14.5619 2.25345 14.7285 1.83372 14.7285C1.41379 14.7285 1.0106 14.5614 0.713672 14.2645C0.416883 13.9676 0.250324 13.565 0.250324 13.1451C0.250324 12.7253 0.416883 12.3227 0.713672 12.0258L5.25117 7.48828L0.713672 2.95078C0.416883 2.65387 0.250324 2.25124 0.250324 1.83143C0.250324 1.41161 0.416883 1.00898 0.713672 0.712072Z" fill="white" stroke="white" stroke-width="0.5"/>
</svg>
