<svg width="30" height="30" viewBox="0 0 30 30" fill="none" xmlns="http://www.w3.org/2000/svg">
<path d="M15.0002 6.25C19.052 6.25 22.6067 9.19042 24.8791 11.6622C25.8879 12.7594 26.3922 13.308 26.5625 14.4445C26.6041 14.7227 26.6041 15.2772 26.5625 15.5555C26.3922 16.692 25.8879 17.2406 24.8791 18.3379C22.6067 20.8096 19.052 23.75 15.0002 23.75C10.9486 23.75 7.39375 20.8096 5.12133 18.3379C4.11259 17.2406 3.60823 16.692 3.43799 15.5555C3.39632 15.2772 3.39632 14.7227 3.43799 14.4445C3.60823 13.308 4.11259 12.7594 5.12133 11.6622C7.39377 9.19042 10.9486 6.25 15.0002 6.25Z" stroke="#6364FF" stroke-width="2" stroke-linejoin="round"/>
<path d="M18.75 15C18.75 17.0711 17.0711 18.75 15 18.75C12.9289 18.75 11.25 17.0711 11.25 15C11.25 12.9289 12.9289 11.25 15 11.25C17.0711 11.25 18.75 12.9289 18.75 15Z" stroke="#6364FF" stroke-width="2" stroke-linejoin="round"/>
</svg>
