<svg width="32" height="26" viewBox="0 0 32 26" fill="none" xmlns="http://www.w3.org/2000/svg">
<path d="M19.292 0.0545802C19.6642 0.159275 19.9796 0.407508 20.1688 0.7447C20.3581 1.08189 20.4057 1.48044 20.3011 1.85271L13.8407 24.8769C13.789 25.0613 13.7015 25.2337 13.5831 25.3843C13.4648 25.5349 13.3179 25.6607 13.151 25.7546C12.984 25.8484 12.8002 25.9085 12.61 25.9313C12.4198 25.9541 12.227 25.9392 12.0426 25.8875C11.8582 25.8358 11.6857 25.7483 11.5351 25.6299C11.3845 25.5116 11.2587 25.3647 11.1649 25.1977C11.071 25.0308 11.011 24.8469 10.9882 24.6568C10.9654 24.4666 10.9803 24.2738 11.032 24.0894L17.4924 1.0652C17.5441 0.880606 17.6316 0.708007 17.7501 0.55728C17.8685 0.406553 18.0155 0.280656 18.1827 0.186791C18.3498 0.0929257 18.5338 0.0329342 18.7241 0.0102482C18.9145 -0.0124377 19.1075 0.00262691 19.292 0.0545802ZM8.67677 5.75229C8.95016 6.02577 9.10375 6.39663 9.10375 6.78333C9.10375 7.17003 8.95016 7.54089 8.67677 7.81437L3.52156 12.971L8.67677 18.1262C8.81226 18.2616 8.91976 18.4224 8.99313 18.5993C9.06649 18.7763 9.10429 18.966 9.10435 19.1575C9.10442 19.3491 9.06676 19.5387 8.99352 19.7157C8.92028 19.8927 8.81289 20.0536 8.6775 20.1891C8.5421 20.3246 8.38134 20.4321 8.2044 20.5054C8.02745 20.5788 7.83779 20.6166 7.64624 20.6166C7.45469 20.6167 7.26501 20.5791 7.08801 20.5058C6.91102 20.4326 6.75018 20.3252 6.61469 20.1898L0.42698 14.0021C0.153585 13.7286 0 13.3577 0 12.971C0 12.5843 0.153585 12.2135 0.42698 11.94L6.61469 5.75229C6.88816 5.47889 7.25903 5.32531 7.64573 5.32531C8.03242 5.32531 8.40329 5.47889 8.67677 5.75229ZM22.6563 7.81437C22.5171 7.67984 22.406 7.51892 22.3295 7.341C22.2531 7.16308 22.2129 6.97172 22.2112 6.77808C22.2095 6.58445 22.2464 6.39241 22.3197 6.21319C22.3931 6.03396 22.5013 5.87114 22.6383 5.73421C22.7752 5.59729 22.938 5.489 23.1172 5.41567C23.2965 5.34235 23.4885 5.30545 23.6821 5.30713C23.8758 5.30881 24.0671 5.34904 24.2451 5.42547C24.423 5.5019 24.5839 5.613 24.7184 5.75229L30.9061 11.94C31.1795 12.2135 31.3331 12.5843 31.3331 12.971C31.3331 13.3577 31.1795 13.7286 30.9061 14.0021L24.7184 20.1898C24.5829 20.3252 24.4221 20.4326 24.2451 20.5058C24.0681 20.5791 23.8784 20.6167 23.6869 20.6166C23.4953 20.6166 23.3057 20.5788 23.1287 20.5054C22.9518 20.4321 22.791 20.3246 22.6556 20.1891C22.5202 20.0536 22.4128 19.8927 22.3396 19.7157C22.2664 19.5387 22.2287 19.3491 22.2288 19.1575C22.2289 18.7706 22.3827 18.3997 22.6563 18.1262L27.8116 12.971L22.6563 7.81437Z" fill="white"/>
</svg>
