<svg width="35" height="35" viewBox="0 0 35 35" fill="none" xmlns="http://www.w3.org/2000/svg">
<path d="M10.2441 9.12592C10.2441 10.7142 11.5317 12.0019 13.12 12.0019C13.5216 12.0019 13.9039 11.9195 14.2511 11.7709C15.2771 11.3316 15.996 10.3127 15.996 9.12592C15.996 7.5376 14.7084 6.25 13.12 6.25C11.5317 6.25 10.2441 7.5376 10.2441 9.12592Z" stroke="white" stroke-width="2" stroke-linecap="round" stroke-linejoin="round"/>
<path d="M8.75 14.8502C9.20697 13.9811 9.84925 13.2627 10.615 12.7642C11.3808 12.2657 12.2444 12.0039 13.1228 12.0039C14.0011 12.0039 14.8647 12.2657 15.6305 12.7642C16.3963 13.2627 17.0386 13.9811 17.4955 14.8502" stroke="white" stroke-width="2" stroke-linecap="round" stroke-linejoin="round"/>
<path d="M31.25 31.25C31.25 31.913 30.9865 32.549 30.5177 33.0177C30.049 33.4865 29.413 33.75 28.75 33.75H6.25C5.58695 33.75 4.95107 33.4865 4.48222 33.0177C4.0134 32.549 3.75 31.913 3.75 31.25V3.75C3.75 3.08695 4.0134 2.45107 4.48222 1.98223C4.95107 1.51339 5.58695 1.25 6.25 1.25H22.5L31.25 10V31.25Z" stroke="white" stroke-width="2" stroke-linecap="round" stroke-linejoin="round"/>
<path d="M8.75 21.25H26.25" stroke="white" stroke-width="2" stroke-linecap="round"/>
<path d="M8.75 27.5H18.75" stroke="white" stroke-width="2" stroke-linecap="round"/>
</svg>
