<svg width="30" height="30" viewBox="0 0 30 30" fill="none" xmlns="http://www.w3.org/2000/svg">
<path d="M2.5 15.0004C2.49941 15.2395 2.5674 15.4738 2.6959 15.6754C2.8244 15.877 3.00803 16.0375 3.225 16.1379L13.975 21.0254C14.299 21.1722 14.6506 21.2481 15.0063 21.2481C15.3619 21.2481 15.7135 21.1722 16.0375 21.0254L26.7625 16.1504C26.9838 16.051 27.1713 15.8893 27.3023 15.6851C27.4332 15.4809 27.5019 15.243 27.5 15.0004M2.5 21.2504C2.49941 21.4895 2.5674 21.7238 2.6959 21.9254C2.8244 22.127 3.00803 22.2875 3.225 22.3879L13.975 27.2754C14.299 27.4222 14.6506 27.4981 15.0063 27.4981C15.3619 27.4981 15.7135 27.4222 16.0375 27.2754L26.7625 22.4004C26.9838 22.301 27.1713 22.1393 27.3023 21.9351C27.4332 21.7309 27.5019 21.493 27.5 21.2504M16.0375 2.72545C15.7118 2.57688 15.358 2.5 15 2.5C14.642 2.5 14.2882 2.57688 13.9625 2.72545L3.25 7.60045C3.02819 7.69825 2.8396 7.85844 2.70721 8.06152C2.57481 8.26459 2.50432 8.50178 2.50432 8.7442C2.50432 8.98662 2.57481 9.2238 2.70721 9.42688C2.8396 9.62995 3.02819 9.79014 3.25 9.88795L13.975 14.7754C14.3007 14.924 14.6545 15.0009 15.0125 15.0009C15.3705 15.0009 15.7243 14.924 16.05 14.7754L26.775 9.90045C26.9968 9.80264 27.1854 9.64245 27.3178 9.43938C27.4502 9.2363 27.5207 8.99912 27.5207 8.7567C27.5207 8.51428 27.4502 8.27709 27.3178 8.07402C27.1854 7.87094 26.9968 7.71075 26.775 7.61295L16.0375 2.72545Z" stroke="#6364FF" stroke-width="2" stroke-linecap="round" stroke-linejoin="round"/>
</svg>
