<svg width="35" height="35" viewBox="0 0 35 35" fill="none" xmlns="http://www.w3.org/2000/svg">
<g clip-path="url(#clip0_551_5959)">
<path d="M11.7743 14.8933C11.1872 13.7174 10.2201 12.7743 9.02986 12.2168C7.83963 11.6593 6.496 11.5201 5.21675 11.8217C3.9375 12.1234 2.7976 12.8482 1.98182 13.8787C1.16603 14.9092 0.722168 16.185 0.722168 17.4994C0.722168 18.8137 1.16603 20.0895 1.98182 21.12C2.7976 22.1505 3.9375 22.8753 5.21675 23.177C6.496 23.4786 7.83963 23.3394 9.02986 22.7819C10.2201 22.2244 11.1872 21.2813 11.7743 20.1054" stroke="white" stroke-width="2" stroke-linecap="round" stroke-linejoin="round"/>
<path d="M28.4376 12.395C29.7108 12.3982 30.9502 11.9857 31.9676 11.2202C32.9851 10.4548 33.7249 9.37826 34.0747 8.15408C34.4246 6.92989 34.3654 5.62498 33.9061 4.43752C33.4468 3.25006 32.6125 2.24493 31.5299 1.5748C30.4473 0.904673 29.1757 0.606151 27.908 0.724578C26.6403 0.843004 25.4459 1.37191 24.5062 2.23096C23.5665 3.09001 22.9328 4.23227 22.7014 5.48426C22.47 6.73625 22.6535 8.02955 23.2241 9.16775" stroke="white" stroke-width="2" stroke-linecap="round" stroke-linejoin="round"/>
<path d="M23.2241 25.8294C22.6567 26.9648 22.4752 28.2543 22.707 29.5022C22.9388 30.7502 23.5713 31.8884 24.5086 32.7443C25.4459 33.6003 26.6368 34.1271 27.9006 34.245C29.1644 34.3628 30.4322 34.0653 31.5115 33.3974C32.5909 32.7296 33.423 31.7279 33.8816 30.5443C34.3401 29.3607 34.4001 28.0599 34.0525 26.8392C33.7049 25.6184 32.9685 24.5444 31.9552 23.78C30.9419 23.0156 29.7069 22.6025 28.4377 22.6035" stroke="white" stroke-width="2" stroke-linecap="round" stroke-linejoin="round"/>
<path d="M28.4373 12.3953C27.3544 12.3943 26.2931 12.0919 25.3723 11.5219C24.4515 10.9519 23.7076 10.1368 23.2238 9.16797L11.7744 14.8919C12.1829 15.7002 12.3957 16.5931 12.3957 17.4987C12.3957 18.4043 12.1829 19.2972 11.7744 20.1055L23.2238 25.8309C23.7076 24.862 24.4515 24.047 25.3723 23.477C26.2931 22.907 27.3544 22.6046 28.4373 22.6036" stroke="white" stroke-width="2" stroke-linecap="round" stroke-linejoin="round"/>
</g>
<defs>
<clipPath id="clip0_551_5959">
<rect width="35" height="35" fill="white"/>
</clipPath>
</defs>
</svg>
